<svg width="1000" height="1000" viewBox="0 0 1000 1000" fill="none" xmlns="http://www.w3.org/2000/svg">
<path d="M497.12 176.29C572.93 194.56 629.92 272.77 629.92 366.5C629.92 473.78 555.26 560.75 463.17 560.75C371.08 560.75 296.42 473.75 296.42 366.5C296.332 337.077 302.147 307.936 313.52 280.8L284.9 254.31C249.407 295.866 229.936 348.74 230 403.39C230 530.47 333 633.5 460.11 633.5C587.22 633.5 690.22 530.5 690.22 403.39C690.23 288.92 606.61 194 497.12 176.29Z" fill="white"/>
<path d="M757.68 836L288.68 249L253.67 301.75L757.68 836Z" fill="white"/>
<path d="M769.68 728.75L574.68 445.05C573.783 443.744 573.244 442.226 573.118 440.646C572.991 439.067 573.282 437.482 573.96 436.05L581.29 420.59L514.92 473.07L528.86 469.51C530.63 469.056 532.49 469.096 534.239 469.625C535.988 470.154 537.558 471.151 538.78 472.51L769.68 728.75Z" fill="white"/>
<path d="M383.93 240.5C405.331 240.5 422.68 223.151 422.68 201.75C422.68 180.349 405.331 163 383.93 163C362.529 163 345.18 180.349 345.18 201.75C345.18 223.151 362.529 240.5 383.93 240.5Z" fill="white"/>
</svg>
